<svg xmlns="http://www.w3.org/2000/svg" width="512" height="512" viewBox="0 0 512 512" version="1.1"><path d="M 275.240 118.653 C 273.447 119.536, 270.397 122.415, 268.463 125.050 C 255.032 143.347, 252.669 169.933, 262.843 188.297 L 265.500 193.093 270.500 192.434 C 295.775 189.098, 311 168.205, 304.388 145.932 C 300.622 133.248, 293.120 121.868, 286.560 118.888 C 281.582 116.627, 279.440 116.582, 275.240 118.653 M 156.500 133.565 C 142.430 136.667, 129.409 144.523, 117.613 157.028 C 106.347 168.970, 97.911 183.086, 88.944 205 C 83.462 218.398, 84.472 218.012, 70.887 211.895 C 66.118 209.748, 60.205 207.716, 57.747 207.379 C 53.824 206.841, 53.077 207.053, 51.639 209.106 C 50.661 210.502, 50 213.424, 50 216.353 C 50 221.097, 50.227 221.482, 56.781 227.880 C 60.511 231.521, 66.606 236.259, 70.327 238.409 C 74.587 240.870, 76.905 242.805, 76.587 243.634 C 75.590 246.232, 72.096 265.728, 70.517 277.500 C 69.632 284.100, 68.638 296.958, 68.308 306.072 L 67.707 322.645 54.471 322.196 C 38.896 321.668, 28.876 323.420, 19.679 328.279 C 8.196 334.346, 3 343.449, 3 357.500 C 3 374.168, 10.798 386.638, 24.619 392.070 C 33.191 395.438, 52.987 395.494, 64.500 392.181 C 74.105 389.418, 82.882 384.676, 91.190 377.762 L 97.338 372.646 104.155 376.374 C 120.463 385.292, 136.176 389.981, 149.792 389.993 C 164.411 390.005, 179.098 385.825, 190.916 378.288 C 197.762 373.922, 211.678 360.177, 215.721 353.788 L 218.703 349.076 220.485 357.567 C 223.567 372.250, 229.143 381.656, 237.763 386.707 C 241.425 388.853, 243.931 389.460, 250.567 389.808 C 270.776 390.869, 289.290 382.069, 307.750 362.629 L 315 354.994 315.008 362.747 C 315.024 379.765, 318.427 390.551, 324.721 393.538 C 329.346 395.733, 334.786 394.623, 346.378 389.121 C 357.480 383.852, 362.788 379.733, 365.042 374.637 C 367.092 370.005, 367.027 369.443, 362.071 348.899 C 360.929 344.168, 359.927 336.518, 359.842 331.899 C 359.710 324.657, 360.185 322.032, 363.287 312.840 C 371.370 288.888, 383.436 270.533, 394.500 265.358 C 403.033 261.367, 413.275 262.919, 415.861 268.595 C 417.984 273.254, 417.107 283.537, 413.033 301.758 C 407.971 324.399, 406.586 336.363, 407.282 351.464 C 408.405 375.860, 415.404 387.467, 430.411 389.821 C 440.063 391.334, 447.946 388.585, 472.326 375.204 C 483.027 369.330, 487.301 366.359, 491.240 362.058 C 502.667 349.580, 508.018 338.046, 508.767 324.280 C 509.176 316.779, 508.960 314.588, 507.612 312.530 C 506.700 311.139, 505.242 310, 504.371 310 C 503.501 310, 494.330 318.293, 483.992 328.430 C 462.731 349.276, 456.120 353.720, 452.200 349.800 C 449.979 347.579, 450.982 340.611, 456.925 317 C 468.087 272.654, 467.764 252.706, 455.668 239.318 C 447.984 230.812, 435.742 226.663, 418.500 226.720 C 402.645 226.772, 391.007 230.998, 381.331 240.217 L 378.161 243.236 375.944 238.868 C 367.599 222.430, 357.551 216.318, 348.224 222.005 C 344.263 224.420, 338.568 233.054, 332.069 246.500 C 323.720 263.774, 319.066 280.870, 316.902 302.217 L 315.716 313.913 300.663 329.042 C 283.573 346.220, 278.547 350.098, 272.620 350.679 C 267.238 351.207, 263.941 349.386, 261.595 344.589 C 259.881 341.087, 259.804 339.954, 260.829 333.364 C 261.455 329.332, 264.245 316.515, 267.028 304.881 C 276.629 264.749, 277.966 249.721, 273.079 236.855 C 265.199 216.108, 250.181 214.772, 238.628 233.789 C 229.298 249.148, 221.060 277.984, 218.500 304.245 C 218.127 308.066, 217.282 311.316, 216.550 311.745 C 215.840 312.160, 211.505 317, 206.917 322.500 C 194.962 336.832, 182.880 348.520, 176.875 351.563 C 172.414 353.824, 170.512 354.172, 163.060 354.092 C 151.337 353.967, 144.837 352.123, 129.139 344.471 C 116.919 338.514, 115.835 337.768, 116.445 335.729 C 116.811 334.503, 117.529 323.600, 118.039 311.500 C 119.140 285.392, 120.833 257.802, 121.639 252.840 L 122.215 249.287 131.858 248.648 C 165.054 246.448, 190.163 236.422, 206.403 218.882 C 213.965 210.714, 218.392 202.698, 221.025 192.404 C 227.060 168.806, 219.024 146.380, 201.696 138.467 C 189.266 132.791, 169.660 130.664, 156.500 133.565 M 159.500 167.227 C 146.008 172.037, 135.326 188.750, 128.119 216.328 L 127.118 220.156 131.309 219.535 C 151.390 216.559, 169.091 208.142, 178.703 197 C 183.338 191.628, 185 187.611, 185 181.784 C 185 171.278, 179.393 165.936, 168.516 166.079 C 165.207 166.122, 161.150 166.639, 159.500 167.227 M 41.329 350.458 C 35.233 353.110, 34.063 360.217, 38.923 365.077 C 41.518 367.672, 42.535 368, 47.973 368 C 51.418 368, 55.348 367.354, 56.953 366.524 C 60.030 364.933, 63.442 360.112, 64.505 355.853 C 65.123 353.377, 64.802 353.070, 59.545 351.103 C 53.127 348.702, 45.950 348.447, 41.329 350.458" stroke="none" fill="#fbfbfc" fill-rule="evenodd"/><path d="M 38 1.379 C 25.380 4.869, 11.545 15.682, 5.761 26.575 C -0.374 38.127, -0.002 23.270, 0.024 255.960 C 0.040 393.104, 0.401 470.028, 1.043 472.808 C 3.920 485.286, 15.386 500.298, 26.575 506.239 C 38.127 512.374, 23.270 512.002, 255.960 511.976 C 393.104 511.960, 470.028 511.599, 472.808 510.957 C 489.160 507.186, 505.188 492.439, 509.604 477.102 C 510.492 474.021, 511.618 470.719, 512.109 469.764 C 513.276 467.490, 513.295 40.700, 512.128 41.421 C 511.648 41.718, 511.013 40.467, 510.717 38.642 C 508.980 27.941, 496.403 11.590, 485.425 5.761 C 473.868 -0.376, 488.805 -0.006, 255.540 0.067 C 88.868 0.120, 41.521 0.406, 38 1.379 M 0.491 256 C 0.491 373.975, 0.607 422.238, 0.750 363.250 C 0.892 304.263, 0.892 207.738, 0.750 148.750 C 0.607 89.763, 0.491 138.025, 0.491 256 M 275.240 118.653 C 273.447 119.536, 270.397 122.415, 268.463 125.050 C 255.032 143.347, 252.669 169.933, 262.843 188.297 L 265.500 193.093 270.500 192.434 C 295.775 189.098, 311 168.205, 304.388 145.932 C 300.622 133.248, 293.120 121.868, 286.560 118.888 C 281.582 116.627, 279.440 116.582, 275.240 118.653 M 156.500 133.565 C 142.430 136.667, 129.409 144.523, 117.613 157.028 C 106.347 168.970, 97.911 183.086, 88.944 205 C 83.462 218.398, 84.472 218.012, 70.887 211.895 C 66.118 209.748, 60.205 207.716, 57.747 207.379 C 53.824 206.841, 53.077 207.053, 51.639 209.106 C 50.661 210.502, 50 213.424, 50 216.353 C 50 221.097, 50.227 221.482, 56.781 227.880 C 60.511 231.521, 66.606 236.259, 70.327 238.409 C 74.587 240.870, 76.905 242.805, 76.587 243.634 C 75.590 246.232, 72.096 265.728, 70.517 277.500 C 69.632 284.100, 68.638 296.958, 68.308 306.072 L 67.707 322.645 54.471 322.196 C 38.896 321.668, 28.876 323.420, 19.679 328.279 C 8.196 334.346, 3 343.449, 3 357.500 C 3 374.168, 10.798 386.638, 24.619 392.070 C 33.191 395.438, 52.987 395.494, 64.500 392.181 C 74.105 389.418, 82.882 384.676, 91.190 377.762 L 97.338 372.646 104.155 376.374 C 120.463 385.292, 136.176 389.981, 149.792 389.993 C 164.411 390.005, 179.098 385.825, 190.916 378.288 C 197.762 373.922, 211.678 360.177, 215.721 353.788 L 218.703 349.076 220.485 357.567 C 223.567 372.250, 229.143 381.656, 237.763 386.707 C 241.425 388.853, 243.931 389.460, 250.567 389.808 C 270.776 390.869, 289.290 382.069, 307.750 362.629 L 315 354.994 315.008 362.747 C 315.024 379.765, 318.427 390.551, 324.721 393.538 C 329.346 395.733, 334.786 394.623, 346.378 389.121 C 357.480 383.852, 362.788 379.733, 365.042 374.637 C 367.092 370.005, 367.027 369.443, 362.071 348.899 C 360.929 344.168, 359.927 336.518, 359.842 331.899 C 359.710 324.657, 360.185 322.032, 363.287 312.840 C 371.370 288.888, 383.436 270.533, 394.500 265.358 C 403.033 261.367, 413.275 262.919, 415.861 268.595 C 417.984 273.254, 417.107 283.537, 413.033 301.758 C 407.971 324.399, 406.586 336.363, 407.282 351.464 C 408.405 375.860, 415.404 387.467, 430.411 389.821 C 440.063 391.334, 447.946 388.585, 472.326 375.204 C 483.027 369.330, 487.301 366.359, 491.240 362.058 C 502.667 349.580, 508.018 338.046, 508.767 324.280 C 509.176 316.779, 508.960 314.588, 507.612 312.530 C 506.700 311.139, 505.242 310, 504.371 310 C 503.501 310, 494.330 318.293, 483.992 328.430 C 462.731 349.276, 456.120 353.720, 452.200 349.800 C 449.979 347.579, 450.982 340.611, 456.925 317 C 468.087 272.654, 467.764 252.706, 455.668 239.318 C 447.984 230.812, 435.742 226.663, 418.500 226.720 C 402.645 226.772, 391.007 230.998, 381.331 240.217 L 378.161 243.236 375.944 238.868 C 367.599 222.430, 357.551 216.318, 348.224 222.005 C 344.263 224.420, 338.568 233.054, 332.069 246.500 C 323.720 263.774, 319.066 280.870, 316.902 302.217 L 315.716 313.913 300.663 329.042 C 283.573 346.220, 278.547 350.098, 272.620 350.679 C 267.238 351.207, 263.941 349.386, 261.595 344.589 C 259.881 341.087, 259.804 339.954, 260.829 333.364 C 261.455 329.332, 264.245 316.515, 267.028 304.881 C 276.629 264.749, 277.966 249.721, 273.079 236.855 C 265.199 216.108, 250.181 214.772, 238.628 233.789 C 229.298 249.148, 221.060 277.984, 218.500 304.245 C 218.127 308.066, 217.282 311.316, 216.550 311.745 C 215.840 312.160, 211.505 317, 206.917 322.500 C 194.962 336.832, 182.880 348.520, 176.875 351.563 C 172.414 353.824, 170.512 354.172, 163.060 354.092 C 151.337 353.967, 144.837 352.123, 129.139 344.471 C 116.919 338.514, 115.835 337.768, 116.445 335.729 C 116.811 334.503, 117.529 323.600, 118.039 311.500 C 119.140 285.392, 120.833 257.802, 121.639 252.840 L 122.215 249.287 131.858 248.648 C 165.054 246.448, 190.163 236.422, 206.403 218.882 C 213.965 210.714, 218.392 202.698, 221.025 192.404 C 227.060 168.806, 219.024 146.380, 201.696 138.467 C 189.266 132.791, 169.660 130.664, 156.500 133.565 M 159.500 167.227 C 146.008 172.037, 135.326 188.750, 128.119 216.328 L 127.118 220.156 131.309 219.535 C 151.390 216.559, 169.091 208.142, 178.703 197 C 183.338 191.628, 185 187.611, 185 181.784 C 185 171.278, 179.393 165.936, 168.516 166.079 C 165.207 166.122, 161.150 166.639, 159.500 167.227 M 41.329 350.458 C 35.233 353.110, 34.063 360.217, 38.923 365.077 C 41.518 367.672, 42.535 368, 47.973 368 C 51.418 368, 55.348 367.354, 56.953 366.524 C 60.030 364.933, 63.442 360.112, 64.505 355.853 C 65.123 353.377, 64.802 353.070, 59.545 351.103 C 53.127 348.702, 45.950 348.447, 41.329 350.458" stroke="none" fill="#acdcfc" fill-rule="evenodd"/></svg>